<?xml version="1.0"?>
<svg xmlns="http://www.w3.org/2000/svg" xmlns:xlink="http://www.w3.org/1999/xlink" xmlns:svgjs="http://svgjs.com/svgjs" version="1.1" width="512" height="512" x="0" y="0" viewBox="0 0 506.625 506.625" style="enable-background:new 0 0 512 512" xml:space="preserve" class=""><g transform="matrix(-1,-1.2246467991473532e-16,1.2246467991473532e-16,-1,506.62499999999994,506.6250000000001)"><path xmlns="http://www.w3.org/2000/svg" d="m506.625 0-315.599 58.444-79.19 178.18-26.983-26.982-84.853 84.852 212.132 212.131 84.852-84.852-26.982-26.982 178.18-79.191zm-294.493 464.199-169.705-169.705 42.426-42.427 169.705 169.706zm35.142-92.138-112.71-112.71 77.46-174.286 231.123-42.8-94.934 94.935c-16.352-7.825-37.086-5.34-51.228 8.801-8.499 8.499-13.181 19.8-13.181 31.82 0 24.87 20.127 45 45 45 12.021 0 23.321-4.682 31.819-13.181 14.111-14.11 16.646-34.834 8.802-51.228l94.935-94.935-42.8 231.123zm92.137-183.634c-2.833 2.833-6.6 4.393-10.606 4.393-8.291 0-15-6.711-15-15s6.708-15 15-15c4.007 0 7.773 1.561 10.606 4.395 5.862 5.861 5.862 15.35 0 21.212z" data-original="#000000" style="" class=""/></g></svg>
